<svg width="392" height="31" viewBox="0 0 392 31" fill="none" xmlns="http://www.w3.org/2000/svg">
<path d="M0.48 30.3333V0.466674H13.8773C17.3191 0.466674 19.9644 1.16356 21.8133 2.55734C23.6622 3.92267 24.5867 5.80001 24.5867 8.18934C24.5867 9.81068 24.2169 11.176 23.4773 12.2853C22.7662 13.3947 21.7991 14.248 20.576 14.8453C19.3529 15.4427 18.0302 15.7413 16.608 15.7413L17.376 14.4613C19.0827 14.4613 20.5902 14.76 21.8987 15.3573C23.2071 15.9547 24.2453 16.8365 25.0133 18.0027C25.7813 19.1405 26.1653 20.5627 26.1653 22.2693C26.1653 24.8293 25.1982 26.8205 23.264 28.2427C21.3582 29.6365 18.5138 30.3333 14.7307 30.3333H0.48ZM4.74667 26.8773H14.56C16.9209 26.8773 18.7271 26.4791 19.9787 25.6827C21.2302 24.8862 21.856 23.6347 21.856 21.928C21.856 20.1929 21.2302 18.9271 19.9787 18.1307C18.7271 17.3342 16.9209 16.936 14.56 16.936H4.36267V13.48H13.4933C15.6551 13.48 17.3333 13.0818 18.528 12.2853C19.7227 11.4889 20.32 10.2942 20.32 8.70134C20.32 7.10845 19.7227 5.91379 18.528 5.11734C17.3333 4.3209 15.6551 3.92268 13.4933 3.92268H4.74667V26.8773ZM28.505 30.3333V0.466674H49.5823V4.17867H32.7717V26.6213H50.1797V30.3333H28.505ZM32.3877 16.9787V13.352H47.7477V16.9787H32.3877ZM59.699 30.3333V18.8987L60.6803 21.544L47.8377 0.466674H52.403L63.1977 18.2587H60.723L71.5603 0.466674H75.7843L62.9843 21.544L63.923 18.8987V30.3333H59.699ZM88.0377 30.6747C85.7621 30.6747 83.643 30.2907 81.6803 29.5227C79.7461 28.7547 78.0679 27.688 76.6457 26.3227C75.2234 24.9289 74.1141 23.3076 73.3177 21.4587C72.5212 19.6098 72.123 17.5902 72.123 15.4C72.123 13.2098 72.5212 11.1902 73.3177 9.34134C74.1141 7.49245 75.2234 5.88534 76.6457 4.52001C78.0679 3.12623 79.7461 2.04534 81.6803 1.27734C83.6146 0.509342 85.7337 0.125342 88.0377 0.125342C90.3132 0.125342 92.4039 0.509342 94.3097 1.27734C96.2439 2.0169 97.9221 3.08356 99.3443 4.47734C100.795 5.84268 101.904 7.44979 102.672 9.29867C103.469 11.1476 103.867 13.1813 103.867 15.4C103.867 17.6187 103.469 19.6525 102.672 21.5013C101.904 23.3502 100.795 24.9716 99.3443 26.3653C97.9221 27.7307 96.2439 28.7973 94.3097 29.5653C92.4039 30.3049 90.3132 30.6747 88.0377 30.6747ZM88.0377 26.8773C89.6875 26.8773 91.2092 26.5929 92.603 26.024C94.0252 25.4551 95.2483 24.6587 96.2723 23.6347C97.3248 22.5822 98.1355 21.3591 98.7043 19.9653C99.3017 18.5716 99.6003 17.0498 99.6003 15.4C99.6003 13.7502 99.3017 12.2285 98.7043 10.8347C98.1355 9.4409 97.3248 8.23201 96.2723 7.20801C95.2483 6.15556 94.0252 5.3449 92.603 4.77601C91.2092 4.20712 89.6875 3.92268 88.0377 3.92268C86.3595 3.92268 84.8092 4.20712 83.387 4.77601C81.9932 5.3449 80.7701 6.15556 79.7177 7.20801C78.6652 8.23201 77.8403 9.4409 77.243 10.8347C76.6741 12.2285 76.3897 13.7502 76.3897 15.4C76.3897 17.0498 76.6741 18.5716 77.243 19.9653C77.8403 21.3591 78.6652 22.5822 79.7177 23.6347C80.7701 24.6587 81.9932 25.4551 83.387 26.024C84.8092 26.5929 86.3595 26.8773 88.0377 26.8773ZM106.122 30.3333V0.466674H109.62L129.375 25H127.54V0.466674H131.807V30.3333H128.308L108.554 5.80001H110.388V30.3333H106.122ZM136.48 30.3333V0.466674H149.067C152.252 0.466674 155.054 1.09245 157.472 2.34401C159.918 3.59556 161.81 5.3449 163.147 7.59201C164.512 9.83912 165.195 12.4418 165.195 15.4C165.195 18.3582 164.512 20.9609 163.147 23.208C161.81 25.4551 159.918 27.2045 157.472 28.456C155.054 29.7076 152.252 30.3333 149.067 30.3333H136.48ZM140.747 26.6213H148.811C151.285 26.6213 153.419 26.152 155.211 25.2133C157.031 24.2747 158.439 22.9662 159.435 21.288C160.43 19.5813 160.928 17.6187 160.928 15.4C160.928 13.1529 160.43 11.1902 159.435 9.51201C158.439 7.83379 157.031 6.52534 155.211 5.58667C153.419 4.64801 151.285 4.17867 148.811 4.17867H140.747V26.6213ZM175.055 30.3333V18.0733H170.255V16.3333H181.835V18.0733H177.035V30.3333H175.055ZM192.053 30.3333V16.3333H194.053V30.3333H192.053ZM182.013 30.3333V16.3333H184.013V30.3333H182.013ZM183.813 24.0933V22.3533H192.233V24.0933H183.813ZM196.244 30.3333V16.3333H206.124V18.0733H198.244V28.5933H206.404V30.3333H196.244ZM198.064 24.0733V22.3733H205.264V24.0733H198.064ZM234.812 30.3333V0.466674H239.079V30.3333H234.812ZM213.393 30.3333V0.466674H217.66V30.3333H213.393ZM217.233 17.0213V13.3093H235.196V17.0213H217.233ZM257.234 30.6747C254.959 30.6747 252.84 30.2907 250.877 29.5227C248.943 28.7547 247.265 27.688 245.842 26.3227C244.42 24.9289 243.311 23.3076 242.514 21.4587C241.718 19.6098 241.32 17.5902 241.32 15.4C241.32 13.2098 241.718 11.1902 242.514 9.34134C243.311 7.49245 244.42 5.88534 245.842 4.52001C247.265 3.12623 248.943 2.04534 250.877 1.27734C252.811 0.509342 254.93 0.125342 257.234 0.125342C259.51 0.125342 261.601 0.509342 263.506 1.27734C265.441 2.0169 267.119 3.08356 268.541 4.47734C269.992 5.84268 271.101 7.44979 271.869 9.29867C272.665 11.1476 273.064 13.1813 273.064 15.4C273.064 17.6187 272.665 19.6525 271.869 21.5013C271.101 23.3502 269.992 24.9716 268.541 26.3653C267.119 27.7307 265.441 28.7973 263.506 29.5653C261.601 30.3049 259.51 30.6747 257.234 30.6747ZM257.234 26.8773C258.884 26.8773 260.406 26.5929 261.8 26.024C263.222 25.4551 264.445 24.6587 265.469 23.6347C266.521 22.5822 267.332 21.3591 267.901 19.9653C268.498 18.5716 268.797 17.0498 268.797 15.4C268.797 13.7502 268.498 12.2285 267.901 10.8347C267.332 9.4409 266.521 8.23201 265.469 7.20801C264.445 6.15556 263.222 5.3449 261.8 4.77601C260.406 4.20712 258.884 3.92268 257.234 3.92268C255.556 3.92268 254.006 4.20712 252.584 4.77601C251.19 5.3449 249.967 6.15556 248.914 7.20801C247.862 8.23201 247.037 9.4409 246.44 10.8347C245.871 12.2285 245.586 13.7502 245.586 15.4C245.586 17.0498 245.871 18.5716 246.44 19.9653C247.037 21.3591 247.862 22.5822 248.914 23.6347C249.967 24.6587 251.19 25.4551 252.584 26.024C254.006 26.5929 255.556 26.8773 257.234 26.8773ZM275.318 30.3333V0.466674H286.966C290.835 0.466674 293.878 1.39112 296.097 3.24001C298.316 5.06045 299.425 7.60623 299.425 10.8773C299.425 13.0391 298.927 14.9022 297.932 16.4667C296.936 18.0027 295.514 19.1831 293.665 20.008C291.816 20.8329 289.583 21.2453 286.966 21.2453H277.665L279.585 19.2827V30.3333H275.318ZM295.286 30.3333L287.692 19.496H292.257L299.937 30.3333H295.286ZM279.585 19.7093L277.665 17.6187H286.838C289.569 17.6187 291.631 17.0356 293.025 15.8693C294.447 14.6747 295.158 13.0107 295.158 10.8773C295.158 8.74401 294.447 7.09423 293.025 5.92801C291.631 4.76179 289.569 4.17867 286.838 4.17867H277.665L279.585 2.04534V19.7093ZM302.052 30.3333V0.466674H306.318V30.3333H302.052ZM308.348 30.3333V27.432L328.444 2.51468L328.913 4.17867H308.647V0.466674H332.753V3.36801L312.743 28.2853L312.231 26.6213H333.308V30.3333H308.348ZM347.918 30.6747C345.642 30.6747 343.523 30.2907 341.56 29.5227C339.626 28.7547 337.948 27.688 336.526 26.3227C335.103 24.9289 333.994 23.3076 333.198 21.4587C332.401 19.6098 332.003 17.5902 332.003 15.4C332.003 13.2098 332.401 11.1902 333.198 9.34134C333.994 7.49245 335.103 5.88534 336.526 4.52001C337.948 3.12623 339.626 2.04534 341.56 1.27734C343.495 0.509342 345.614 0.125342 347.918 0.125342C350.193 0.125342 352.284 0.509342 354.19 1.27734C356.124 2.0169 357.802 3.08356 359.224 4.47734C360.675 5.84268 361.784 7.44979 362.552 9.29867C363.349 11.1476 363.747 13.1813 363.747 15.4C363.747 17.6187 363.349 19.6525 362.552 21.5013C361.784 23.3502 360.675 24.9716 359.224 26.3653C357.802 27.7307 356.124 28.7973 354.19 29.5653C352.284 30.3049 350.193 30.6747 347.918 30.6747ZM347.918 26.8773C349.567 26.8773 351.089 26.5929 352.483 26.024C353.905 25.4551 355.128 24.6587 356.152 23.6347C357.205 22.5822 358.015 21.3591 358.584 19.9653C359.182 18.5716 359.48 17.0498 359.48 15.4C359.48 13.7502 359.182 12.2285 358.584 10.8347C358.015 9.4409 357.205 8.23201 356.152 7.20801C355.128 6.15556 353.905 5.3449 352.483 4.77601C351.089 4.20712 349.567 3.92268 347.918 3.92268C346.239 3.92268 344.689 4.20712 343.267 4.77601C341.873 5.3449 340.65 6.15556 339.598 7.20801C338.545 8.23201 337.72 9.4409 337.123 10.8347C336.554 12.2285 336.27 13.7502 336.27 15.4C336.27 17.0498 336.554 18.5716 337.123 19.9653C337.72 21.3591 338.545 22.5822 339.598 23.6347C340.65 24.6587 341.873 25.4551 343.267 26.024C344.689 26.5929 346.239 26.8773 347.918 26.8773ZM366.002 30.3333V0.466674H369.5L389.255 25H387.42V0.466674H391.687V30.3333H388.188L368.434 5.80001H370.268V30.3333H366.002Z" fill="#D7D7D7"/>
</svg>
